<?xml version="1.0" encoding="UTF-8"?>
<!DOCTYPE svg PUBLIC "-//W3C//DTD SVG 1.1//EN" "http://www.w3.org/Graphics/SVG/1.1/DTD/svg11.dtd">
<svg xmlns="http://www.w3.org/2000/svg" xmlns:xlink="http://www.w3.org/1999/xlink" version="1.1" width="1204px" height="821px" viewBox="-0.5 -0.5 1204 821">
<defs/><g><path d="M 240 600 L 480 600" fill="none" stroke="#000000" stroke-width="2" stroke-miterlimit="10" pointer-events="stroke"/><path d="M 360 640 L 360 603" fill="none" stroke="#000000" stroke-miterlimit="10" pointer-events="stroke"/><ellipse cx="360" cy="600" rx="3" ry="3" fill="#000000" stroke="#000000" pointer-events="all"/><rect x="340" y="640" width="40" height="60" fill="none" stroke="none" pointer-events="all"/><ellipse cx="360" cy="680" rx="20" ry="20" fill="#ffffff" stroke="#000000" pointer-events="all"/><ellipse cx="360" cy="660" rx="20" ry="20" fill="#ffffff" stroke="#000000" pointer-events="all"/><ellipse cx="360" cy="680" rx="20" ry="20" fill="none" stroke="#000000" pointer-events="all"/><path d="M 360 700 L 360 767" fill="none" stroke="#000000" stroke-width="2" stroke-miterlimit="10" stroke-dasharray="6 6" pointer-events="stroke"/><ellipse cx="360" cy="770" rx="3" ry="3" fill="#000000" stroke="#000000" stroke-width="2" pointer-events="all"/><path d="M 280 640 L 280 603" fill="none" stroke="#000000" stroke-miterlimit="10" pointer-events="stroke"/><ellipse cx="280" cy="600" rx="3" ry="3" fill="#000000" stroke="#000000" pointer-events="all"/><rect x="250" y="640" width="60" height="60" fill="none" stroke="none" pointer-events="all"/><ellipse cx="280" cy="670" rx="30" ry="30" fill="#ffffff" stroke="#000000" pointer-events="all"/><path d="M 265 670 C 266.16 666.86 269.16 664.78 272.5 664.78 C 275.84 664.78 278.84 666.86 280 670 C 281.16 673.14 284.16 675.22 287.5 675.22 C 290.84 675.22 293.84 673.14 295 670" fill="none" stroke="#000000" stroke-miterlimit="10" pointer-events="all"/><path d="M 79 360 L 79 200" fill="none" stroke="#000000" stroke-width="2" stroke-miterlimit="10" pointer-events="stroke"/><path d="M 83 320 L 110 320 Q 120 320 125.55 328.32 L 274.45 551.68 Q 280 560 280 570 L 280 597" fill="none" stroke="#000000" stroke-miterlimit="10" pointer-events="stroke"/><ellipse cx="80" cy="320" rx="3" ry="3" fill="#000000" stroke="#000000" pointer-events="all"/><ellipse cx="280" cy="600" rx="3" ry="3" fill="#000000" stroke="#000000" pointer-events="all"/><path d="M 240 80 L 400 80" fill="none" stroke="#000000" stroke-width="2" stroke-miterlimit="10" pointer-events="stroke"/><path d="M 83 240 L 110 240 Q 120 240 128 234 L 272 126 Q 280 120 280 110 L 280 83" fill="none" stroke="#000000" stroke-miterlimit="10" pointer-events="stroke"/><ellipse cx="80" cy="240" rx="3" ry="3" fill="#000000" stroke="#000000" pointer-events="all"/><ellipse cx="280" cy="80" rx="3" ry="3" fill="#000000" stroke="#000000" pointer-events="all"/><path d="M 320 83 L 320 597" fill="none" stroke="#000000" stroke-miterlimit="10" pointer-events="stroke"/><ellipse cx="320" cy="80" rx="3" ry="3" fill="#000000" stroke="#000000" pointer-events="all"/><ellipse cx="320" cy="600" rx="3" ry="3" fill="#000000" stroke="#000000" pointer-events="all"/><path d="M 440 620 L 440.09 603" fill="none" stroke="#000000" stroke-miterlimit="10" pointer-events="stroke"/><ellipse cx="440.11" cy="600" rx="3" ry="3" fill="#000000" stroke="#000000" pointer-events="all"/><rect x="420" y="620" width="40" height="60" fill="none" stroke="none" pointer-events="all"/><path d="M 420 640 L 440 680 L 460 640 Z" fill="#ffffff" stroke="#000000" stroke-miterlimit="10" pointer-events="all"/><path d="M 440 620 L 440 640" fill="none" stroke="#000000" stroke-miterlimit="10" pointer-events="all"/><path d="M 720 320 L 560 320" fill="none" stroke="#000000" stroke-width="2" stroke-miterlimit="10" pointer-events="stroke"/><path d="M 440 597 L 440 570 Q 440 560 446.25 552.19 L 593.75 367.81 Q 600 360 600 350 L 600 323" fill="none" stroke="#000000" stroke-miterlimit="10" pointer-events="stroke"/><ellipse cx="440" cy="600" rx="3" ry="3" fill="#000000" stroke="#000000" pointer-events="all"/><ellipse cx="600" cy="320" rx="3" ry="3" fill="#000000" stroke="#000000" pointer-events="all"/><path d="M 60 280 L 80 280 L 77 280.14" fill="none" stroke="#000000" stroke-miterlimit="10" pointer-events="stroke"/><ellipse cx="80" cy="280.17" rx="3" ry="3" fill="#000000" stroke="#000000" pointer-events="all"/><rect x="10" y="250" width="40" height="60" fill="none" stroke="none" transform="rotate(90,30,280)" pointer-events="all"/><path d="M 10 270 L 30 310 L 50 270 Z" fill="#ffffff" stroke="#000000" stroke-miterlimit="10" transform="rotate(90,30,280)" pointer-events="all"/><path d="M 30 250 L 30 270" fill="none" stroke="#000000" stroke-miterlimit="10" transform="rotate(90,30,280)" pointer-events="all"/><path d="M 320 60 L 320 80 L 320 60 L 320 77" fill="none" stroke="#000000" stroke-miterlimit="10" pointer-events="stroke"/><ellipse cx="320" cy="80" rx="3" ry="3" fill="#000000" stroke="#000000" pointer-events="all"/><rect x="300" y="0" width="40" height="60" fill="none" stroke="none" transform="rotate(-180,320,30)" pointer-events="all"/><path d="M 300 20 L 320 60 L 340 20 Z" fill="#ffffff" stroke="#000000" stroke-miterlimit="10" transform="rotate(-180,320,30)" pointer-events="all"/><path d="M 320 0 L 320 20" fill="none" stroke="#000000" stroke-miterlimit="10" transform="rotate(-180,320,30)" pointer-events="all"/><path d="M 640 300 L 640 320 L 640 300 L 640 317" fill="none" stroke="#000000" stroke-miterlimit="10" pointer-events="stroke"/><ellipse cx="640" cy="320" rx="3" ry="3" fill="#000000" stroke="#000000" pointer-events="all"/><rect x="620" y="240" width="40" height="60" fill="none" stroke="none" transform="rotate(-180,640,270)" pointer-events="all"/><path d="M 620 260 L 640 300 L 660 260 Z" fill="#ffffff" stroke="#000000" stroke-miterlimit="10" transform="rotate(-180,640,270)" pointer-events="all"/><path d="M 640 240 L 640 260" fill="none" stroke="#000000" stroke-miterlimit="10" transform="rotate(-180,640,270)" pointer-events="all"/><path d="M 920 440 L 760 440" fill="none" stroke="#000000" stroke-width="2" stroke-miterlimit="10" pointer-events="stroke"/><path d="M 840 420 L 840 440 L 840 420 L 840 437" fill="none" stroke="#000000" stroke-miterlimit="10" pointer-events="stroke"/><ellipse cx="840" cy="440" rx="3" ry="3" fill="#000000" stroke="#000000" pointer-events="all"/><rect x="820" y="360" width="40" height="60" fill="none" stroke="none" transform="rotate(-180,840,390)" pointer-events="all"/><path d="M 820 380 L 840 420 L 860 380 Z" fill="#ffffff" stroke="#000000" stroke-miterlimit="10" transform="rotate(-180,840,390)" pointer-events="all"/><path d="M 840 360 L 840 380" fill="none" stroke="#000000" stroke-miterlimit="10" transform="rotate(-180,840,390)" pointer-events="all"/><path d="M 680 323 L 680 350 Q 680 360 685.55 368.32 L 754.45 471.68 Q 760 480 770 480 L 790 480 Q 800 480 800 470 L 800 443" fill="none" stroke="#000000" stroke-miterlimit="10" pointer-events="stroke"/><ellipse cx="680" cy="320" rx="3" ry="3" fill="#000000" stroke="#000000" pointer-events="all"/><ellipse cx="800" cy="440" rx="3" ry="3" fill="#000000" stroke="#000000" pointer-events="all"/><path d="M 960 560 L 1200 560" fill="none" stroke="#000000" stroke-width="2" stroke-miterlimit="10" pointer-events="stroke"/><path d="M 880 443 L 880 470 Q 880 480 889.49 483.16 L 990.51 516.84 Q 1000 520 1000 530 L 1000 557" fill="none" stroke="#000000" stroke-miterlimit="10" pointer-events="stroke"/><ellipse cx="880" cy="440" rx="3" ry="3" fill="#000000" stroke="#000000" pointer-events="all"/><ellipse cx="1000" cy="560" rx="3" ry="3" fill="#000000" stroke="#000000" pointer-events="all"/><path d="M 1000 600 L 1000 563" fill="none" stroke="#000000" stroke-miterlimit="10" pointer-events="stroke"/><ellipse cx="1000" cy="560" rx="3" ry="3" fill="#000000" stroke="#000000" pointer-events="all"/><rect x="980" y="600" width="40" height="60" fill="none" stroke="none" pointer-events="all"/><ellipse cx="1000" cy="640" rx="20" ry="20" fill="#ffffff" stroke="#000000" pointer-events="all"/><ellipse cx="1000" cy="620" rx="20" ry="20" fill="#ffffff" stroke="#000000" pointer-events="all"/><ellipse cx="1000" cy="640" rx="20" ry="20" fill="none" stroke="#000000" pointer-events="all"/><path d="M 1000 660 L 1000 717" fill="none" stroke="#000000" stroke-width="2" stroke-miterlimit="10" stroke-dasharray="6 6" pointer-events="stroke"/><ellipse cx="1000" cy="720" rx="3" ry="3" fill="#000000" stroke="#000000" stroke-width="2" pointer-events="all"/><path d="M 880 200 L 720 200" fill="none" stroke="#000000" stroke-width="2" stroke-miterlimit="10" pointer-events="stroke"/><path d="M 800 180 L 800 200 L 800 180 L 800 197" fill="none" stroke="#000000" stroke-miterlimit="10" pointer-events="stroke"/><ellipse cx="800" cy="200" rx="3" ry="3" fill="#000000" stroke="#000000" pointer-events="all"/><rect x="780" y="120" width="40" height="60" fill="none" stroke="none" transform="rotate(-180,800,150)" pointer-events="all"/><path d="M 780 140 L 800 180 L 820 140 Z" fill="#ffffff" stroke="#000000" stroke-miterlimit="10" transform="rotate(-180,800,150)" pointer-events="all"/><path d="M 800 120 L 800 140" fill="none" stroke="#000000" stroke-miterlimit="10" transform="rotate(-180,800,150)" pointer-events="all"/><path d="M 360 83 L 360 110 Q 360 120 369.49 123.16 L 710.51 236.84 Q 720 240 730 240 L 750 240 Q 760 240 760 230 L 760 203" fill="none" stroke="#000000" stroke-miterlimit="10" pointer-events="stroke"/><ellipse cx="360" cy="80" rx="3" ry="3" fill="#000000" stroke="#000000" pointer-events="all"/><ellipse cx="760" cy="200" rx="3" ry="3" fill="#000000" stroke="#000000" pointer-events="all"/><path d="M 1080 600 L 1080 563" fill="none" stroke="#000000" stroke-miterlimit="10" pointer-events="stroke"/><ellipse cx="1080" cy="560" rx="3" ry="3" fill="#000000" stroke="#000000" pointer-events="all"/><rect x="1060" y="600" width="40" height="60" fill="none" stroke="none" pointer-events="all"/><ellipse cx="1080" cy="640" rx="20" ry="20" fill="#ffffff" stroke="#000000" pointer-events="all"/><ellipse cx="1080" cy="620" rx="20" ry="20" fill="#ffffff" stroke="#000000" pointer-events="all"/><ellipse cx="1080" cy="640" rx="20" ry="20" fill="none" stroke="#000000" pointer-events="all"/><path d="M 1080 660 L 1080 717" fill="none" stroke="#000000" stroke-width="2" stroke-miterlimit="10" stroke-dasharray="6 6" pointer-events="stroke"/><ellipse cx="1080" cy="720" rx="3" ry="3" fill="#000000" stroke="#000000" stroke-width="2" pointer-events="all"/><path d="M 840 203 L 840 230 Q 840 240 846.51 247.59 L 1073.49 512.41 Q 1080 520 1080 530 L 1080 557" fill="none" stroke="#000000" stroke-miterlimit="10" pointer-events="stroke"/><ellipse cx="840" cy="200" rx="3" ry="3" fill="#000000" stroke="#000000" pointer-events="all"/><ellipse cx="1080" cy="560" rx="3" ry="3" fill="#000000" stroke="#000000" pointer-events="all"/><path d="M 1160 580 L 1160 560 L 1160 580 L 1160 563" fill="none" stroke="#000000" stroke-miterlimit="10" pointer-events="stroke"/><ellipse cx="1160" cy="560" rx="3" ry="3" fill="#000000" stroke="#000000" pointer-events="all"/><rect x="1140" y="580" width="40" height="60" fill="none" stroke="none" pointer-events="all"/><path d="M 1140 600 L 1160 640 L 1180 600 Z" fill="#ffffff" stroke="#000000" stroke-miterlimit="10" pointer-events="all"/><path d="M 1160 580 L 1160 600" fill="none" stroke="#000000" stroke-miterlimit="10" pointer-events="all"/><ellipse cx="360" cy="795" rx="25" ry="25" fill="#ffffff" stroke="#000000" pointer-events="all"/><path d="M 342.2 777.2 L 377.8 812.8 M 377.8 777.2 L 342.2 812.8" fill="none" stroke="#000000" stroke-miterlimit="10" pointer-events="all"/><ellipse cx="1000" cy="745" rx="25" ry="25" fill="#ffffff" stroke="#000000" pointer-events="all"/><path d="M 982.2 727.2 L 1017.8 762.8 M 1017.8 727.2 L 982.2 762.8" fill="none" stroke="#000000" stroke-miterlimit="10" pointer-events="all"/><ellipse cx="1080" cy="745" rx="25" ry="25" fill="#ffffff" stroke="#000000" pointer-events="all"/><path d="M 1062.2 727.2 L 1097.8 762.8 M 1097.8 727.2 L 1062.2 762.8" fill="none" stroke="#000000" stroke-miterlimit="10" pointer-events="all"/></g></svg>