<?xml version="1.0" encoding="UTF-8" standalone="no"?>
<svg
   xmlns:dc="http://purl.org/dc/elements/1.1/"
   xmlns:cc="http://creativecommons.org/ns#"
   xmlns:rdf="http://www.w3.org/1999/02/22-rdf-syntax-ns#"
   xmlns:svg="http://www.w3.org/2000/svg"
   xmlns="http://www.w3.org/2000/svg"
   version="1.1"
   width="1204px"
   height="821px"
   viewBox="-0.5 -0.5 1204 821"
   id="svg216">
  <metadata
     id="metadata220">
    <rdf:RDF>
      <cc:Work
         rdf:about="">
        <dc:format>image/svg+xml</dc:format>
        <dc:type
           rdf:resource="http://purl.org/dc/dcmitype/StillImage" />
        <dc:title></dc:title>
      </cc:Work>
    </rdf:RDF>
  </metadata>
  <defs
     id="defs10" />
  <g
     id="bg">
    <path
       d="M 240 600 L 480 600"
       fill="none"
       stroke="#000000"
       stroke-width="2"
       stroke-miterlimit="10"
       pointer-events="stroke"
       id="Bus_0006" />
    <g
       id="Trf_0005_0006">
      <path
         d="M 360 640 L 360 603"
         fill="none"
         stroke="#000000"
         stroke-miterlimit="10"
         pointer-events="stroke"
         id="Trf_0005_0006_line" />
      <rect
         id="rect18"
         pointer-events="all"
         stroke="none"
         fill="none"
         height="60"
         width="40"
         y="640"
         x="340" />
      <ellipse
         id="ellipse20"
         pointer-events="all"
         stroke="#000000"
         fill="none"
         ry="20"
         rx="20"
         cy="680"
         cx="360" />
      <ellipse
         id="ellipse22"
         pointer-events="all"
         stroke="#000000"
         fill="none"
         ry="20"
         rx="20"
         cy="660"
         cx="360" />
      <ellipse
         id="ellipse24"
         pointer-events="all"
         stroke="#000000"
         fill="none"
         ry="20"
         rx="20"
         cy="680"
         cx="360" />
    </g>
    <g
       id="Gen_0006">
      <path
         id="path30"
         pointer-events="stroke"
         stroke-miterlimit="10"
         stroke="#000000"
         fill="none"
         d="M 280 640 L 280 603" />
      <rect
         id="rect34"
         pointer-events="all"
         stroke="none"
         fill="none"
         height="60"
         width="60"
         y="640"
         x="250" />
      <ellipse
         id="ellipse36"
         pointer-events="all"
         stroke="#000000"
         fill="none"
         ry="30"
         rx="30"
         cy="670"
         cx="280" />
      <path
         id="path38"
         pointer-events="all"
         stroke-miterlimit="10"
         stroke="#000000"
         fill="none"
         d="M 265 670 C 266.16 666.86 269.16 664.78 272.5 664.78 C 275.84 664.78 278.84 666.86 280 670 C 281.16 673.14 284.16 675.22 287.5 675.22 C 290.84 675.22 293.84 673.14 295 670" />
    </g>
    <g
       id="Load_0006">
      <path
         id="path62"
         pointer-events="stroke"
         stroke-miterlimit="10"
         stroke="#000000"
         fill="none"
         d="M 440 620 L 440.09 603" />
      <rect
         id="rect66"
         pointer-events="all"
         stroke="none"
         fill="none"
         height="60"
         width="40"
         y="620"
         x="420" />
      <path
         id="path68"
         pointer-events="all"
         stroke-miterlimit="10"
         stroke="#000000"
         fill="none"
         d="M 420 640 L 440 680 L 460 640 Z" />
      <path
         id="path70"
         pointer-events="all"
         stroke-miterlimit="10"
         stroke="#000000"
         fill="none"
         d="M 440 620 L 440 640" />
    </g>
    <path
       d="M 83 320 L 110 320 Q 120 320 125.55 328.32 L 274.45 551.68 Q 280 560 280 570 L 280 597"
       fill="none"
       stroke="#000000"
       stroke-miterlimit="10"
       pointer-events="stroke"
       id="Line_0006_0012" />
    <path
       d="M 79 360 L 79 200"
       fill="none"
       stroke="#000000"
       stroke-width="2"
       stroke-miterlimit="10"
       pointer-events="stroke"
       id="Bus_0012" />
    <path
       d="M 83 240 L 110 240 Q 120 240 128 234 L 272 126 Q 280 120 280 110 L 280 83"
       fill="none"
       stroke="#000000"
       stroke-miterlimit="10"
       pointer-events="stroke"
       id="Line_0012_0013" />
    <path
       d="M 240 80 L 400 80"
       fill="none"
       stroke="#000000"
       stroke-width="2"
       stroke-miterlimit="10"
       pointer-events="stroke"
       id="Bus_0013" />
    <path
       d="M 320 83 L 320 597"
       fill="none"
       stroke="#000000"
       id="Line_0006_0013" />
    <path
       d="M 720 320 L 560 320"
       fill="none"
       stroke="#000000"
       stroke-width="2"
       stroke-miterlimit="10"
       pointer-events="stroke"
       id="Bus_0011" />
    <path
       d="M 440 597 L 440 570 Q 440 560 446.25 552.19 L 593.75 367.81 Q 600 360 600 350 L 600 323"
       fill="none"
       stroke="#000000"
       stroke-miterlimit="10"
       pointer-events="stroke"
       id="Line_0006_0011" />
    <g
       id="Load_0012">
      <path
         id="path80"
         pointer-events="stroke"
         stroke-miterlimit="10"
         stroke="#000000"
         fill="none"
         d="M 60 280 L 80 280 L 77 280.14" />
      <rect
         id="rect84"
         pointer-events="all"
         transform="rotate(90,30,280)"
         stroke="none"
         fill="none"
         height="60"
         width="40"
         y="250"
         x="10" />
      <path
         id="path86"
         pointer-events="all"
         transform="rotate(90,30,280)"
         stroke-miterlimit="10"
         stroke="#000000"
         fill="none"
         d="M 10 270 L 30 310 L 50 270 Z" />
      <path
         id="path88"
         pointer-events="all"
         transform="rotate(90,30,280)"
         stroke-miterlimit="10"
         stroke="#000000"
         fill="none"
         d="M 30 250 L 30 270" />
    </g>
    <g
       id="Load_0013">
      <path
         id="path90"
         pointer-events="stroke"
         stroke-miterlimit="10"
         stroke="#000000"
         fill="none"
         d="M 320 60 L 320 80 L 320 60 L 320 77" />
      <rect
         id="rect94"
         pointer-events="all"
         transform="rotate(-180,320,30)"
         stroke="none"
         fill="none"
         height="60"
         width="40"
         y="0"
         x="300" />
      <path
         id="path96"
         pointer-events="all"
         transform="rotate(-180,320,30)"
         stroke-miterlimit="10"
         stroke="#000000"
         fill="none"
         d="M 300 20 L 320 60 L 340 20 Z" />
      <path
         id="path98"
         pointer-events="all"
         transform="rotate(-180,320,30)"
         stroke-miterlimit="10"
         stroke="#000000"
         fill="none"
         d="M 320 0 L 320 20" />
    </g>
    <rect
       x="620"
       y="240"
       width="40"
       height="60"
       fill="none"
       stroke="none"
       transform="rotate(-180,640,270)"
       pointer-events="all"
       id="rect104" />
    <g
       id="Load_0011">
      <path
         id="path100"
         pointer-events="stroke"
         stroke-miterlimit="10"
         stroke="#000000"
         fill="none"
         d="M 640 300 L 640 320 L 640 300 L 640 317" />
      <path
         id="path106"
         pointer-events="all"
         transform="rotate(-180,640,270)"
         stroke-miterlimit="10"
         stroke="#000000"
         fill="none"
         d="M 620 260 L 640 300 L 660 260 Z" />
      <path
         id="path108"
         pointer-events="all"
         transform="rotate(-180,640,270)"
         stroke-miterlimit="10"
         stroke="#000000"
         fill="none"
         d="M 640 240 L 640 260" />
    </g>
    <path
       d="M 920 440 L 760 440"
       fill="none"
       stroke="#000000"
       stroke-width="2"
       stroke-miterlimit="10"
       pointer-events="stroke"
       id="Bus_0010" />
    <rect
       x="820"
       y="360"
       width="40"
       height="60"
       fill="none"
       stroke="none"
       transform="rotate(-180,840,390)"
       pointer-events="all"
       id="rect116" />
    <g
       id="Load_0010">
      <path
         id="path112"
         pointer-events="stroke"
         stroke-miterlimit="10"
         stroke="#000000"
         fill="none"
         d="M 840 420 L 840 440 L 840 420 L 840 437" />
      <path
         id="path118"
         pointer-events="all"
         transform="rotate(-180,840,390)"
         stroke-miterlimit="10"
         stroke="#000000"
         fill="none"
         d="M 820 380 L 840 420 L 860 380 Z" />
    </g>
    <path
       d="M 840 360 L 840 380"
       fill="none"
       stroke="#000000"
       stroke-miterlimit="10"
       transform="rotate(-180,840,390)"
       pointer-events="all"
       id="path120" />
    <path
       d="M 680 323 L 680 350 Q 680 360 685.55 368.32 L 754.45 471.68 Q 760 480 770 480 L 790 480 Q 800 480 800 470 L 800 443"
       fill="none"
       stroke="#000000"
       stroke-miterlimit="10"
       pointer-events="stroke"
       id="Line_0010_0011" />
    <path
       d="M 960 560 L 1200 560"
       fill="none"
       stroke="#000000"
       stroke-width="2"
       stroke-miterlimit="10"
       pointer-events="stroke"
       id="Bus_0009" />
    <path
       d="M 880 443 L 880 470 Q 880 480 889.49 483.16 L 990.51 516.84 Q 1000 520 1000 530 L 1000 557"
       fill="none"
       stroke="#000000"
       stroke-miterlimit="10"
       pointer-events="stroke"
       id="Line_0009_0010" />
    <g
       id="Trf_0004_0009">
      <path
         id="path136"
         pointer-events="stroke"
         stroke-miterlimit="10"
         stroke="#000000"
         fill="none"
         d="M 1000 600 L 1000 563" />
      <rect
         id="rect140"
         pointer-events="all"
         stroke="none"
         fill="none"
         height="60"
         width="40"
         y="600"
         x="980" />
      <ellipse
         id="ellipse142"
         pointer-events="all"
         stroke="#000000"
         fill="none"
         ry="20"
         rx="20"
         cy="640"
         cx="1000" />
      <ellipse
         id="ellipse144"
         pointer-events="all"
         stroke="#000000"
         fill="none"
         ry="20"
         rx="20"
         cy="620"
         cx="1000" />
      <ellipse
         id="ellipse146"
         pointer-events="all"
         stroke="#000000"
         fill="none"
         ry="20"
         rx="20"
         cy="640"
         cx="1000" />
    </g>
    <path
       d="M 880 200 L 720 200"
       fill="none"
       stroke="#000000"
       stroke-width="2"
       stroke-miterlimit="10"
       pointer-events="stroke"
       id="Bus_0014" />
    <g id="Load_0014">
      <path id="path154" stroke="#000000" fill="none" d="M 800 180 L 800 200 L 800 180 L 800 197" />
      <path id="path160" transform="rotate(-180,800,150)" stroke="#000000" fill="none" d="M 780 140 L 800 180 L 820 140 Z" />
      <path id="path162" transform="rotate(-180,800,150)" stroke="#000000" fill="none" d="M 800 120 L 800 140" />
    </g>
    <path id="Line_0013_0014" fill="none" stroke="#000000" d="M 360 83 L 360 110 Q 360 120 369.49 123.16 L 710.51 236.84 Q 720 240 730 240 L 750 240 Q 760 240 760 230 L 760 203" />
    <g id="Trf_0007_0009">
      <path id="path170" stroke="#000000" fill="none" d="M 1080 600 L 1080 563" />
      <ellipse id="ellipse176" stroke="#000000" fill="none" ry="20" rx="20" cy="640" cx="1080" />
      <ellipse id="ellipse178" stroke="#000000" fill="none" ry="20" rx="20" cy="620" cx="1080" />
      <ellipse id="ellipse180" stroke="#000000" fill="none" ry="20" rx="20" cy="640" cx="1080" />
    </g>
    <path id="Line_0009_0014" fill="none" stroke="#000000" d="M 840 203 L 840 230 Q 840 240 846.51 247.59 L 1073.49 512.41 Q 1080 520 1080 530 L 1080 557" />
    <g id="Load_0009">
      <path id="path192" stroke="#000000" fill="none" d="M 1160 580 L 1160 560 L 1160 580 L 1160 563" />
      <path id="path198" stroke="#000000" fill="none" d="M 1140 600 L 1160 640 L 1180 600 Z" />
      <path id="path200" stroke="#000000" fill="none" d="M 1160 580 L 1160 600" />
    </g>
    <g id="Ext_0001">
      <path id="path26" stroke-dasharray="6 6" stroke-width="2" stroke="#000000" fill="none" d="M 360 700 L 360 767" />
      <ellipse id="ellipse28" stroke-width="2" stroke="#000000" fill="#000000" ry="3" rx="3" cy="770" cx="360" />
      <ellipse id="ellipse202" stroke="#000000" fill="none" ry="25" rx="25" cy="795" cx="360" />
      <path id="path204" stroke="#000000" fill="none" d="M 342.2 777.2 L 377.8 812.8 M 377.8 777.2 L 342.2 812.8" />
    </g>
    <g id="Ext_0002">
      <path id="path148" stroke-dasharray="6 6" stroke-width="2" stroke="#000000" fill="none" d="M 1000 660 L 1000 717" />
      <ellipse id="ellipse150" stroke-width="2" stroke="#000000" fill="#000000" ry="3" rx="3" cy="720" cx="1000" />
      <ellipse id="ellipse206" stroke="#000000" fill="none" ry="25" rx="25" cy="745" cx="1000" />
      <path id="path208" stroke="#000000" fill="none" d="M 982.2 727.2 L 1017.8 762.8 M 1017.8 727.2 L 982.2 762.8" />
    </g>
    <g id="Ext_0003">
      <path id="path182" stroke-dasharray="6 6" stroke-width="2" stroke="#000000" fill="none" d="M 1080 660 L 1080 717" />
      <ellipse id="ellipse184" stroke-width="2" stroke="#000000" fill="#000000" ry="3" rx="3" cy="720" cx="1080" />
      <ellipse id="ellipse210" stroke="#000000" fill="none" ry="25" rx="25" cy="745" cx="1080" />
      <path id="path212" stroke="#000000" fill="none" d="M 1062.2 727.2 L 1097.8 762.8 M 1097.8 727.2 L 1062.2 762.8" />
    </g>
    <ellipse id="ellipse16" cx="360" cy="600" rx="3" ry="3" fill="#000000" stroke="#000000" />
    <ellipse id="ellipse32" cx="280" cy="600" rx="3" ry="3" fill="#000000" stroke="#000000" />
    <ellipse id="ellipse44" cx="80" cy="320" rx="3" ry="3" fill="#000000" stroke="#000000" />
    <ellipse id="ellipse46" cx="280" cy="600" rx="3" ry="3" fill="#000000" stroke="#000000" />
    <ellipse id="ellipse52" cx="80" cy="240" rx="3" ry="3" fill="#000000" stroke="#000000" />
    <ellipse id="ellipse54" cx="280" cy="80" rx="3" ry="3" fill="#000000" stroke="#000000" />
    <ellipse id="ellipse58" cx="320" cy="80" rx="3" ry="3" fill="#000000" stroke="#000000" />
    <ellipse id="ellipse60" cx="320" cy="600" rx="3" ry="3" fill="#000000" stroke="#000000" />
    <ellipse id="ellipse64" cx="440.11" cy="600" rx="3" ry="3" fill="#000000" stroke="#000000" />
    <ellipse id="ellipse76" cx="440" cy="600" rx="3" ry="3" fill="#000000" stroke="#000000" />
    <ellipse id="ellipse78" cx="600" cy="320" rx="3" ry="3" fill="#000000" stroke="#000000" />
    <ellipse id="ellipse82" cx="80" cy="280.17" rx="3" ry="3" fill="#000000" stroke="#000000" />
    <ellipse id="ellipse92" cx="320" cy="80" rx="3" ry="3" fill="#000000" stroke="#000000" />
    <ellipse id="ellipse102" cx="640" cy="320" rx="3" ry="3" fill="#000000" stroke="#000000" />
    <ellipse id="ellipse114" cx="840" cy="440" rx="3" ry="3" fill="#000000" stroke="#000000" />
    <ellipse id="ellipse124" cx="680" cy="320" rx="3" ry="3" fill="#000000" stroke="#000000" />
    <ellipse id="ellipse126" cx="800" cy="440" rx="3" ry="3" fill="#000000" stroke="#000000" />
    <ellipse id="ellipse132" cx="880" cy="440" rx="3" ry="3" fill="#000000" stroke="#000000" />
    <ellipse id="ellipse134" cx="1000" cy="560" rx="3" ry="3" fill="#000000" stroke="#000000" />
    <ellipse id="ellipse138" cx="1000" cy="560" rx="3" ry="3" fill="#000000" stroke="#000000" />
    <ellipse id="ellipse156" cx="800" cy="200" rx="3" ry="3" fill="#000000" stroke="#000000" />
    <ellipse id="ellipse166" cx="360" cy="80" rx="3" ry="3" fill="#000000" stroke="#000000" />
    <ellipse id="ellipse168" cx="760" cy="200" rx="3" ry="3" fill="#000000" stroke="#000000" />
    <ellipse id="ellipse172" cx="1080" cy="560" rx="3" ry="3" fill="#000000" stroke="#000000" />
    <ellipse id="ellipse188" cx="840" cy="200" rx="3" ry="3" fill="#000000" stroke="#000000" />
    <ellipse id="ellipse190" cx="1080" cy="560" rx="3" ry="3" fill="#000000" stroke="#000000" />
    <ellipse id="ellipse194" cx="1160" cy="560" rx="3" ry="3" fill="#000000" stroke="#000000" />
  </g>
</svg>
