<?xml version="1.0" encoding="utf-8"?>
<!-- Generator: Adobe Illustrator 24.3.0, SVG Export Plug-In . SVG Version: 6.00 Build 0)  -->
<svg version="1.1"
	 id="svg216" xmlns:cc="http://creativecommons.org/ns#" xmlns:dc="http://purl.org/dc/elements/1.1/" xmlns:rdf="http://www.w3.org/1999/02/22-rdf-syntax-ns#" xmlns:svg="http://www.w3.org/2000/svg"
	 xmlns="http://www.w3.org/2000/svg" xmlns:xlink="http://www.w3.org/1999/xlink" x="0px" y="0px" viewBox="0 0 1204 821"
	 style="enable-background:new 0 0 1204 821;" xml:space="preserve">
<style type="text/css">
	.st0{fill:none;stroke:#000000;stroke-width:2;}
	.st1{fill:rgba(255,255,255,0.01);stroke:#000000;}
	.st2{fill:rgba(255,255,255,0.01);stroke:#000000;}
	.st3{fill:none;stroke:#000000;stroke-width:2;stroke-dasharray:6,6;}
	.st4{stroke:#000000;stroke-width:2;}
	.st5{stroke:#000000;}
</style>
<path class="ems-electrical-element" id="Bus_0006" class="st0" d="M240.5,600.5h240"/>
<g class="ems-electrical-element" id="Trf_0005_0006">
	<path id="Trf_0005_0006_line" class="st1" d="M360.5,640.5v-37"/>
	<ellipse id="ellipse20" class="st1" cx="360.5" cy="680.5" rx="20" ry="20"/>
	<ellipse id="ellipse22" class="st1" cx="360.5" cy="660.5" rx="20" ry="20"/>
	<ellipse id="ellipse24" class="st1" cx="360.5" cy="680.5" rx="20" ry="20"/>
</g>
<g class="ems-electrical-element" id="Gen_0006">
	<path id="path30" class="st1" d="M280.5,640.5v-37"/>
	<ellipse id="ellipse36" class="st2" cx="280.5" cy="670.5" rx="30" ry="30"/>
	<path id="path38" class="st1" d="M265.5,670.5c1.2-3.1,4.2-5.2,7.5-5.2s6.3,2.1,7.5,5.2s4.2,5.2,7.5,5.2s6.3-2.1,7.5-5.2"/>
</g>
<g class="ems-electrical-element" id="Load_0006">
	<path id="path62" class="st1" d="M440.5,620.5l0.1-17"/>
	<path id="path68" class="st2" d="M420.5,640.5l20,40l20-40H420.5z"/>
	<path id="path70" class="st1" d="M440.5,620.5v20"/>
</g>
<path class="ems-electrical-element" id="Line_0006_0012" class="st1" d="M83.5,320.5h27c6.7,0,11.8,2.8,15.6,8.3L275,552.2c3.7,5.5,5.5,11.7,5.5,18.3v27"/>
<path class="ems-electrical-element" id="Bus_0012" class="st0" d="M79.5,360.5v-160"/>
<path class="ems-electrical-element" id="Line_0012_0013" class="st1" d="M83.5,240.5h27c6.7,0,12.7-2,18-6l144-108c5.3-4,8-9.3,8-16v-27"/>
<path class="ems-electrical-element" id="Bus_0013" class="st0" d="M240.5,80.5h160"/>
<path class="ems-electrical-element" id="Line_0006_0013" class="st1" d="M320.5,83.5v514"/>
<path class="ems-electrical-element" id="Bus_0011" class="st0" d="M720.5,320.5h-160"/>
<path class="ems-electrical-element" id="Line_0006_0011" class="st1" d="M440.5,597.5v-27c0-6.7,2.1-12.6,6.2-17.8l147.5-184.4c4.2-5.2,6.2-11.1,6.2-17.8v-27"/>
<g class="ems-electrical-element" id="Load_0012">
	<path id="path80" class="st1" d="M60.5,280.5h20l-3,0.1"/>
	<path id="path86" class="st2" d="M40.5,260.5l-40,20l40,20V260.5z"/>
	<path id="path88" class="st1" d="M60.5,280.5h-20"/>
</g>
<g class="ems-electrical-element" id="Load_0013">
	<path id="path90" class="st1" d="M320.5,60.5v20V60.5v17"/>
	<path id="path96" class="st2" d="M340.5,40.5l-20-40l-20,40H340.5z"/>
	<path id="path98" class="st1" d="M320.5,60.5v-20"/>
</g>
<g class="ems-electrical-element" id="Load_0011">
	<path id="path100" class="st1" d="M640.5,300.5v20V300.5v17"/>
	<path id="path106" class="st2" d="M660.5,280.5l-20-40l-20,40H660.5z"/>
	<path id="path108" class="st1" d="M640.5,300.5v-20"/>
</g>
<path class="ems-electrical-element" id="Bus_0010" class="st0" d="M920.5,440.5h-160"/>
<g class="ems-electrical-element" id="Load_0010">
	<path id="path112" class="st1" d="M840.5,420.5v20V420.5v17"/>
	<path id="path118" class="st2" d="M860.5,400.5l-20-40l-20,40H860.5z"/>
	<path id="path120" class="st1" d="M840.5,420.5v-20"/>
</g>
<path class="ems-electrical-element" id="Line_0010_0011" class="st1" d="M680.5,323.5v27c0,6.7,1.9,12.8,5.5,18.3l69,103.4c3.7,5.5,8.9,8.3,15.5,8.3h20
	c6.7,0,10-3.3,10-10v-27"/>
<path class="ems-electrical-element" id="Bus_0009" class="st0" d="M960.5,560.5h240"/>
<path class="ems-electrical-element" id="Line_0009_0010" class="st1" d="M880.5,443.5v27c0,6.7,3.2,11.1,9.5,13.2l101,33.7c6.3,2.1,9.5,6.5,9.5,13.2v27"/>
<g class="ems-electrical-element" id="Trf_0004_0009">
	<path id="path136" class="st1" d="M1000.5,600.5v-37"/>
	<ellipse id="ellipse142" class="st1" cx="1000.5" cy="640.5" rx="20" ry="20"/>
	<ellipse id="ellipse144" class="st1" cx="1000.5" cy="620.5" rx="20" ry="20"/>
	<ellipse id="ellipse146" class="st1" cx="1000.5" cy="640.5" rx="20" ry="20"/>
</g>
<path class="ems-electrical-element" id="Bus_0014" class="st0" d="M880.5,200.5h-160"/>
<g class="ems-electrical-element" id="Load_0014">
	<path id="path154" class="st1" d="M800.5,180.5v20V180.5v17"/>
	<path id="path160" class="st2" d="M820.5,160.5l-20-40l-20,40H820.5z"/>
	<path id="path162" class="st1" d="M800.5,180.5v-20"/>
</g>
<path class="ems-electrical-element" id="Line_0013_0014" class="st1" d="M360.5,83.5v27c0,6.7,3.2,11.1,9.5,13.2l341,113.7c6.3,2.1,12.8,3.2,19.5,3.2h20
	c6.7,0,10-3.3,10-10v-27"/>
<g class="ems-electrical-element" id="Trf_0007_0009">
	<path id="path170" class="st1" d="M1080.5,600.5v-37"/>
	<ellipse id="ellipse176" class="st1" cx="1080.5" cy="640.5" rx="20" ry="20"/>
	<ellipse id="ellipse178" class="st1" cx="1080.5" cy="620.5" rx="20" ry="20"/>
	<ellipse id="ellipse180" class="st1" cx="1080.5" cy="640.5" rx="20" ry="20"/>
</g>
<path class="ems-electrical-element" id="Line_0009_0014" class="st1" d="M840.5,203.5v27c0,6.7,2.2,12.5,6.5,17.6l227,264.8c4.3,5.1,6.5,10.9,6.5,17.6v27"/>
<g class="ems-electrical-element" id="Load_0009">
	<path id="path192" class="st1" d="M1160.5,580.5v-20V580.5v-17"/>
	<path id="path198" class="st2" d="M1140.5,600.5l20,40l20-40H1140.5z"/>
	<path id="path200" class="st1" d="M1160.5,580.5v20"/>
</g>
<g class="ems-electrical-element" id="Ext_0001">
	<path id="path26" class="st3" d="M360.5,700.5v67"/>
	<ellipse id="ellipse202" class="st2" cx="360.5" cy="795.5" rx="25" ry="25"/>
	<path id="path204" class="st1" d="M342.7,777.7l35.6,35.6 M378.3,777.7l-35.6,35.6"/>
	<ellipse id="ellipse28" class="st4" cx="360.5" cy="770.5" rx="3" ry="3"/>
</g>
<g class="ems-electrical-element" id="Ext_0002">
	<path id="path148" class="st3" d="M1000.5,660.5v57"/>
	<ellipse id="ellipse206" class="st2" cx="1000.5" cy="745.5" rx="25" ry="25"/>
	<path id="path208" class="st1" d="M982.7,727.7l35.6,35.6 M1018.3,727.7l-35.6,35.6"/>
	<ellipse id="ellipse150" class="st4" cx="1000.5" cy="720.5" rx="3" ry="3"/>
</g>
<g class="ems-electrical-element" id="Ext_0003">
	<path id="path182" class="st3" d="M1080.5,660.5v57"/>
	<ellipse id="ellipse210" class="st2" cx="1080.5" cy="745.5" rx="25" ry="25"/>
	<path id="path212" class="st1" d="M1062.7,727.7l35.6,35.6 M1098.3,727.7l-35.6,35.6"/>
	<ellipse id="ellipse184" class="st4" cx="1080.5" cy="720.5" rx="3" ry="3"/>
</g>
<ellipse id="ellipse16" class="st5" cx="360.5" cy="600.5" rx="3" ry="3"/>
<ellipse id="ellipse32" class="st5" cx="280.5" cy="600.5" rx="3" ry="3"/>
<ellipse id="ellipse44" class="st5" cx="80.5" cy="320.5" rx="3" ry="3"/>
<ellipse id="ellipse46" class="st5" cx="280.5" cy="600.5" rx="3" ry="3"/>
<ellipse id="ellipse52" class="st5" cx="80.5" cy="240.5" rx="3" ry="3"/>
<ellipse id="ellipse54" class="st5" cx="280.5" cy="80.5" rx="3" ry="3"/>
<ellipse id="ellipse58" class="st5" cx="320.5" cy="80.5" rx="3" ry="3"/>
<ellipse id="ellipse60" class="st5" cx="320.5" cy="600.5" rx="3" ry="3"/>
<ellipse id="ellipse64" class="st5" cx="440.6" cy="600.5" rx="3" ry="3"/>
<ellipse id="ellipse76" class="st5" cx="440.5" cy="600.5" rx="3" ry="3"/>
<ellipse id="ellipse78" class="st5" cx="600.5" cy="320.5" rx="3" ry="3"/>
<ellipse id="ellipse82" class="st5" cx="80.5" cy="280.7" rx="3" ry="3"/>
<ellipse id="ellipse92" class="st5" cx="320.5" cy="80.5" rx="3" ry="3"/>
<ellipse id="ellipse102" class="st5" cx="640.5" cy="320.5" rx="3" ry="3"/>
<ellipse id="ellipse114" class="st5" cx="840.5" cy="440.5" rx="3" ry="3"/>
<ellipse id="ellipse124" class="st5" cx="680.5" cy="320.5" rx="3" ry="3"/>
<ellipse id="ellipse126" class="st5" cx="800.5" cy="440.5" rx="3" ry="3"/>
<ellipse id="ellipse132" class="st5" cx="880.5" cy="440.5" rx="3" ry="3"/>
<ellipse id="ellipse134" class="st5" cx="1000.5" cy="560.5" rx="3" ry="3"/>
<ellipse id="ellipse138" class="st5" cx="1000.5" cy="560.5" rx="3" ry="3"/>
<ellipse id="ellipse156" class="st5" cx="800.5" cy="200.5" rx="3" ry="3"/>
<ellipse id="ellipse166" class="st5" cx="360.5" cy="80.5" rx="3" ry="3"/>
<ellipse id="ellipse168" class="st5" cx="760.5" cy="200.5" rx="3" ry="3"/>
<ellipse id="ellipse172" class="st5" cx="1080.5" cy="560.5" rx="3" ry="3"/>
<ellipse id="ellipse188" class="st5" cx="840.5" cy="200.5" rx="3" ry="3"/>
<ellipse id="ellipse190" class="st5" cx="1080.5" cy="560.5" rx="3" ry="3"/>
<ellipse id="ellipse194" class="st5" cx="1160.5" cy="560.5" rx="3" ry="3"/>
</svg>
